<?xml version="1.0" encoding="UTF-8"?>
<svg xmlns="http://www.w3.org/2000/svg" xmlns:xlink="http://www.w3.org/1999/xlink" width="354pt" height="180pt" viewBox="0 0 354 180" version="1.1">
<defs>
<linearGradient id="linear0" gradientUnits="userSpaceOnUse" x1="0" y1="25.57" x2="128.31" y2="25.57" gradientTransform="matrix(2.757141,0,0,-2.760736,0.129374,187.730061)">
<stop offset="0" style="stop-color:rgb(0%,0%,0%);stop-opacity:0;"/>
<stop offset="0.5" style="stop-color:rgb(0%,0%,0%);stop-opacity:1;"/>
<stop offset="1" style="stop-color:rgb(0%,0%,0%);stop-opacity:0;"/>
</linearGradient>
<radialGradient id="radial0" gradientUnits="userSpaceOnUse" cx="41.54" cy="18.92" fx="41.54" fy="18.92" r="13.79" gradientTransform="matrix(2.757141,0,0,-2.760736,0.129374,187.730061)">
<stop offset="0.17" style="stop-color:rgb(54.901961%,77.647059%,24.705882%);stop-opacity:1;"/>
<stop offset="1" style="stop-color:rgb(0%,40.784314%,21.568627%);stop-opacity:1;"/>
</radialGradient>
<radialGradient id="radial1" gradientUnits="userSpaceOnUse" cx="35.92" cy="50.95" fx="35.92" fy="50.95" r="28.79" gradientTransform="matrix(2.757141,0,0,-2.760736,0.129374,187.730061)">
<stop offset="0" style="stop-color:rgb(8.627451%,21.176471%,49.019608%);stop-opacity:1;"/>
<stop offset="1" style="stop-color:rgb(8.627451%,8.235294%,24.705882%);stop-opacity:1;"/>
</radialGradient>
<radialGradient id="radial2" gradientUnits="userSpaceOnUse" cx="35.92" cy="50.95" fx="35.92" fy="50.95" r="28.79" gradientTransform="matrix(2.757141,0,0,-2.760736,0.129374,187.730061)">
<stop offset="0" style="stop-color:rgb(8.627451%,21.176471%,49.019608%);stop-opacity:1;"/>
<stop offset="1" style="stop-color:rgb(8.627451%,8.235294%,24.705882%);stop-opacity:1;"/>
</radialGradient>
<radialGradient id="radial3" gradientUnits="userSpaceOnUse" cx="35.92" cy="50.95" fx="35.92" fy="50.95" r="28.79" gradientTransform="matrix(2.757141,0,0,-2.760736,0.129374,187.730061)">
<stop offset="0" style="stop-color:rgb(8.627451%,21.176471%,49.019608%);stop-opacity:1;"/>
<stop offset="1" style="stop-color:rgb(8.627451%,8.235294%,24.705882%);stop-opacity:1;"/>
</radialGradient>
<radialGradient id="radial4" gradientUnits="userSpaceOnUse" cx="35.92" cy="50.95" fx="35.92" fy="50.95" r="28.79" gradientTransform="matrix(2.757141,0,0,-2.760736,0.129374,187.730061)">
<stop offset="0" style="stop-color:rgb(8.627451%,21.176471%,49.019608%);stop-opacity:1;"/>
<stop offset="1" style="stop-color:rgb(8.627451%,8.235294%,24.705882%);stop-opacity:1;"/>
</radialGradient>
</defs>
<g id="surface1">
<path style=" stroke:none;fill-rule:nonzero;fill:url(#linear0);" d="M 0.128906 114.292969 L 353.871094 114.292969 L 353.871094 119.816406 L 0.128906 119.816406 Z M 0.128906 114.292969 "/>
<path style=" stroke:none;fill-rule:nonzero;fill:url(#radial0);" d="M 156.183594 142.453125 C 156.183594 163.191406 139.394531 180 118.6875 180 C 97.976562 180 81.1875 163.191406 81.1875 142.453125 C 81.1875 121.71875 97.976562 104.90625 118.6875 104.90625 C 139.394531 104.90625 156.183594 121.71875 156.183594 142.453125 Z M 156.183594 142.453125 "/>
<path style=" stroke:none;fill-rule:nonzero;fill:url(#radial1);" d="M 125.578125 54.664062 C 121.445312 54.9375 117.582031 53.28125 115.101562 50.246094 C 114 49.140625 114 47.207031 115.101562 46.105469 C 115.378906 45.828125 115.652344 45.550781 116.203125 45.550781 C 117.582031 44.722656 118.960938 44.449219 120.339844 44.449219 C 125.855469 44.722656 131.371094 43.066406 136.054688 39.753906 C 137.988281 38.648438 140.46875 38.925781 142.398438 38.097656 C 144.050781 37.269531 145.429688 35.890625 146.257812 34.234375 C 149.289062 28.160156 147.636719 22.085938 148.1875 16.011719 C 148.464844 12.976562 148.464844 10.214844 148.1875 7.179688 C 148.1875 5.519531 148.738281 4.96875 150.394531 4.96875 C 152.324219 4.96875 154.253906 4.96875 156.183594 4.691406 C 157.5625 4.417969 158.941406 4.96875 159.492188 6.351562 C 160.042969 15.183594 157.5625 24.019531 157.285156 33.128906 C 160.042969 32.300781 163.078125 31.75 165.832031 30.921875 C 166.109375 30.921875 166.660156 30.644531 166.9375 30.367188 C 170.519531 28.710938 174.105469 27.332031 177.6875 25.398438 C 179.066406 24.847656 180.722656 24.292969 181.273438 22.636719 C 181.550781 22.085938 182.101562 21.808594 182.929688 21.808594 C 186.238281 22.085938 190.097656 20.152344 193.128906 22.636719 C 194.507812 24.019531 196.4375 22.914062 197.816406 24.019531 C 197.816406 25.949219 197.816406 27.882812 197.816406 29.539062 C 197.816406 31.195312 197.265625 31.75 195.609375 31.75 C 192.855469 31.472656 189.820312 31.75 187.0625 32.578125 C 178.792969 35.0625 170.796875 38.097656 162.523438 40.859375 C 160.59375 41.410156 159.769531 43.34375 157.5625 43.34375 C 155.355469 43.34375 155.632812 44.171875 155.355469 45.550781 C 155.082031 48.863281 153.976562 51.902344 152.324219 54.664062 C 149.566406 61.011719 146.808594 67.363281 144.878906 73.988281 C 144.605469 74.816406 145.15625 76.195312 144.050781 76.75 C 140.46875 78.957031 139.089844 83.097656 136.332031 85.859375 C 134.953125 87.515625 133.023438 88.621094 130.816406 89.449219 C 126.683594 90.550781 122.269531 91.378906 117.859375 91.65625 C 116.480469 91.65625 115.101562 92.207031 113.449219 91.65625 C 113.171875 90.550781 114 90.550781 114.550781 90.277344 C 121.167969 85.03125 125.855469 78.40625 131.371094 72.332031 C 133.574219 69.570312 134.953125 66.257812 135.503906 62.945312 C 136.332031 59.355469 138.261719 55.765625 139.363281 52.179688 C 140.46875 51.625 141.019531 50.246094 140.46875 49.140625 C 140.46875 49.140625 140.46875 49.140625 140.46875 48.863281 C 140.191406 48.3125 139.640625 48.035156 139.089844 48.035156 C 139.089844 48.035156 138.8125 48.035156 138.8125 48.035156 C 134.679688 50.519531 129.714844 51.625 125.578125 54.664062 Z M 125.578125 54.664062 "/>
<path style=" stroke:none;fill-rule:nonzero;fill:url(#radial2);" d="M 158.113281 67.085938 C 161.699219 66.535156 165.28125 66.257812 168.867188 66.535156 C 173.003906 67.363281 177.6875 67.636719 181.273438 70.398438 C 183.753906 72.605469 186.789062 73.988281 190.097656 74.539062 C 190.097656 75.09375 190.648438 75.644531 191.199219 75.921875 C 193.957031 78.128906 196.988281 79.507812 200.023438 80.613281 C 200.296875 80.613281 200.296875 80.613281 200.574219 80.613281 C 204.710938 85.582031 208.84375 90.550781 213.257812 95.796875 C 214.910156 97.730469 215.460938 100.765625 214.082031 103.25 C 212.429688 107.117188 208.292969 109.324219 204.15625 108.773438 C 198.367188 109.324219 195.609375 104.90625 192.027344 101.59375 C 187.890625 97.730469 185.132812 92.207031 180.171875 89.171875 C 176.863281 85.308594 172.175781 84.753906 167.761719 83.375 L 166.660156 82.820312 C 166.386719 82.269531 166.109375 82.269531 165.558594 82.269531 C 160.871094 80.0625 156.460938 76.75 153.152344 72.882812 C 153.152344 71.777344 153.152344 70.675781 153.152344 69.292969 C 153.152344 67.914062 153.976562 67.636719 154.804688 67.363281 L 155.90625 67.636719 C 156.460938 68.191406 156.734375 67.914062 157.285156 67.636719 Z M 158.113281 67.085938 "/>
<path style=" stroke:none;fill-rule:nonzero;fill:url(#radial3);" d="M 79.535156 44.722656 C 75.398438 47.484375 71.816406 50.796875 66.851562 51.902344 C 66.300781 51.902344 65.75 52.453125 65.472656 51.625 C 65.472656 51.351562 66.023438 51.074219 66.300781 50.796875 C 72.640625 48.589844 76.777344 43.894531 80.636719 38.648438 C 81.1875 37.546875 81.1875 36.164062 80.363281 35.335938 C 79.535156 34.507812 78.433594 35.335938 77.328125 35.890625 C 74.847656 37.546875 72.367188 38.925781 69.609375 40.308594 C 62.992188 43.894531 56.652344 48.035156 50.859375 52.453125 C 47.828125 54.664062 44.242188 56.59375 40.660156 57.699219 C 36.246094 58.804688 31.835938 60.734375 28.253906 63.496094 C 25.21875 65.980469 21.636719 67.914062 18.050781 69.570312 C 14.191406 70.949219 10.054688 68.742188 8.675781 64.878906 C 8.402344 64.050781 8.402344 63.222656 8.402344 62.394531 C 8.402344 59.078125 7.574219 55.492188 10.605469 52.730469 C 11.433594 51.625 12.8125 50.796875 14.464844 51.074219 C 20.257812 51.902344 25.769531 49.691406 29.628906 45.277344 C 34.042969 40.859375 39.554688 37.546875 43.140625 32.300781 C 46.449219 27.605469 50.859375 23.742188 54.445312 19.324219 C 57.753906 15.734375 59.40625 10.765625 58.582031 5.796875 C 58.304688 3.863281 57.476562 1.378906 60.234375 0.277344 L 60.785156 0 L 61.890625 0 L 66.300781 0.550781 L 66.851562 1.105469 C 66.851562 1.65625 67.128906 1.933594 67.679688 1.933594 L 68.78125 3.3125 C 70.988281 6.074219 73.195312 8.835938 75.675781 11.320312 C 77.054688 12.421875 77.328125 14.355469 76.777344 16.289062 C 74.570312 22.085938 69.332031 24.847656 64.921875 27.605469 C 59.40625 31.195312 53.617188 34.234375 47.550781 36.71875 C 39.28125 38.375 34.871094 45.828125 28.527344 50.246094 C 31.285156 49.691406 34.042969 48.589844 36.523438 47.207031 L 47.828125 43.894531 C 52.515625 42.792969 56.925781 41.136719 61.339844 38.925781 C 67.128906 36.71875 72.640625 34.234375 77.878906 30.921875 C 78.707031 30.367188 80.085938 30.09375 79.257812 28.710938 C 78.433594 27.332031 78.433594 25.949219 78.15625 24.570312 C 78.707031 22.636719 80.914062 23.742188 82.015625 22.363281 C 84.773438 22.085938 86.429688 24.019531 88.359375 25.121094 C 89.460938 26.503906 90.839844 27.332031 92.492188 27.882812 C 97.730469 29.265625 101.039062 34.507812 100.214844 39.753906 C 100.214844 42.238281 99.109375 43.894531 96.078125 43.894531 C 93.597656 43.621094 91.113281 43.621094 88.632812 43.894531 C 85.601562 44.171875 82.566406 43.066406 79.8125 44.722656 C 79.8125 44.449219 79.535156 44.449219 79.535156 44.722656 Z M 79.535156 44.722656 "/>
<path style=" stroke:none;fill-rule:nonzero;fill:url(#radial4);" d="M 44.796875 61.839844 C 45.621094 61.839844 46.449219 61.839844 47.550781 61.839844 C 50.859375 61.839844 51.6875 62.667969 51.414062 65.980469 C 50.308594 67.363281 49.757812 69.019531 49.480469 70.675781 C 49.207031 78.679688 49.207031 86.410156 49.757812 94.417969 C 49.757812 95.246094 49.757812 96.351562 51.136719 96.351562 C 53.34375 96.351562 55.824219 97.179688 58.03125 95.519531 C 63.269531 93.589844 68.507812 92.207031 73.746094 91.378906 C 76.226562 91.378906 78.15625 89.449219 78.15625 87.238281 C 78.15625 86.964844 78.15625 86.964844 78.15625 86.6875 C 78.707031 82.269531 79.8125 78.128906 81.742188 74.265625 L 82.292969 73.710938 C 83.121094 71.777344 84.773438 70.398438 85.324219 68.191406 C 85.601562 66.808594 85.324219 66.535156 83.945312 66.257812 C 80.636719 65.980469 77.328125 66.535156 74.570312 68.191406 C 68.78125 70.949219 63.542969 73.988281 58.03125 77.300781 C 56.925781 77.300781 56.097656 77.851562 55.273438 77.300781 C 54.445312 76.75 54.722656 75.644531 54.996094 74.816406 C 55.824219 73.160156 56.097656 71.503906 55.824219 69.570312 C 55.824219 69.292969 55.824219 69.292969 55.824219 69.019531 L 56.097656 69.019531 C 56.925781 68.742188 57.753906 68.464844 58.582031 68.464844 C 63.820312 68.464844 68.78125 66.535156 72.640625 62.667969 C 73.746094 61.5625 75.949219 61.5625 77.054688 60.460938 C 83.671875 54.9375 91.390625 57.148438 98.835938 57.148438 C 99.386719 57.148438 99.9375 57.699219 100.214844 57.976562 L 100.488281 59.078125 C 100.214844 59.90625 100.488281 60.734375 101.039062 61.5625 C 101.039062 64.601562 100.488281 67.636719 99.664062 70.398438 C 98.558594 73.160156 95.800781 74.816406 95.527344 78.128906 C 95.527344 78.40625 95.25 78.40625 95.25 78.40625 C 91.667969 79.507812 91.113281 83.375 89.738281 85.859375 C 88.359375 88.34375 89.738281 90 92.492188 90 C 93.597656 89.722656 94.421875 90 95.25 90.828125 C 97.179688 93.035156 96.90625 96.625 94.699219 98.558594 C 93.871094 99.109375 93.046875 99.664062 91.941406 99.9375 C 82.292969 101.320312 72.640625 102.699219 62.714844 103.527344 C 60.785156 103.804688 57.203125 102.699219 57.203125 106.839844 C 57.203125 107.117188 56.375 107.667969 55.824219 107.667969 C 54.167969 108.222656 52.238281 108.496094 50.308594 108.222656 C 47.550781 107.667969 44.796875 107.667969 42.039062 107.945312 C 40.933594 107.945312 39.832031 107.667969 38.453125 107.394531 C 36.800781 106.839844 35.421875 106.289062 35.144531 104.078125 C 34.871094 101.871094 36.523438 101.320312 37.902344 100.765625 C 39.28125 100.214844 39.832031 98.558594 39.28125 97.179688 C 37.625 90.550781 37.351562 83.925781 38.730469 77.300781 C 39.003906 73.4375 40.660156 69.847656 43.417969 67.363281 C 44.242188 66.535156 44.519531 65.707031 43.96875 64.601562 C 43.96875 63.496094 44.242188 62.394531 44.796875 61.839844 Z M 44.796875 61.839844 "/>
<path style=" stroke:none;fill-rule:nonzero;fill:rgb(12.54902%,16.862745%,42.745098%);fill-opacity:1;" d="M 236.691406 67.636719 L 236.691406 82.820312 L 253.785156 82.820312 C 254.335938 82.546875 254.613281 82.269531 255.164062 81.71875 C 256.269531 80.613281 257.09375 80.0625 257.371094 80.0625 C 258.472656 80.613281 259.578125 81.164062 260.402344 81.992188 C 261.507812 82.820312 262.058594 83.375 262.058594 83.375 C 263.710938 82.820312 265.367188 81.992188 267.019531 81.164062 C 266.195312 80.613281 265.640625 80.0625 265.089844 79.507812 C 263.988281 78.40625 263.160156 77.300781 262.609375 75.921875 L 259.578125 75.921875 L 258.472656 73.988281 C 261.230469 74.265625 264.261719 74.265625 267.019531 74.265625 L 273.914062 74.265625 L 275.292969 73.160156 L 275.84375 72.882812 C 275.015625 72.882812 274.1875 72.882812 273.363281 72.605469 C 271.984375 72.332031 271.15625 71.226562 271.15625 69.019531 L 271.15625 66.535156 L 266.746094 66.535156 C 266.46875 68.742188 265.089844 70.949219 263.160156 72.054688 C 261.507812 72.882812 259.578125 73.4375 257.644531 73.4375 L 257.371094 73.160156 C 259.851562 72.054688 261.507812 69.292969 261.230469 66.535156 C 261.230469 65.429688 260.953125 64.324219 260.679688 63.496094 C 262.886719 64.050781 265.367188 64.601562 267.296875 65.429688 L 270.605469 65.429688 L 272.257812 64.050781 C 272.8125 63.773438 273.363281 63.496094 273.914062 63.222656 C 275.015625 63.496094 276.121094 63.773438 276.945312 64.324219 C 278.324219 65.152344 278.875 65.707031 278.875 66.257812 C 278.875 66.808594 278.601562 66.808594 277.773438 67.363281 C 276.945312 67.914062 276.394531 68.191406 276.394531 68.464844 C 276.394531 68.742188 276.394531 69.292969 276.945312 69.292969 C 277.496094 69.570312 278.324219 69.570312 278.875 69.570312 L 280.253906 69.570312 C 280.804688 69.570312 281.359375 69.292969 281.910156 68.742188 C 282.183594 68.191406 282.738281 67.363281 283.289062 66.257812 L 284.113281 66.535156 L 284.390625 67.363281 C 284.390625 67.914062 284.667969 68.742188 285.21875 69.019531 C 286.046875 69.847656 286.320312 70.121094 286.320312 70.398438 C 286.320312 71.226562 285.492188 71.777344 284.113281 72.054688 C 282.460938 72.332031 280.804688 72.605469 278.875 72.605469 L 280.253906 73.4375 C 281.910156 74.539062 282.460938 75.09375 282.460938 75.367188 C 282.460938 75.644531 281.910156 75.921875 280.804688 75.921875 C 279.980469 75.921875 279.429688 75.921875 278.875 76.195312 C 277.773438 77.578125 276.394531 78.679688 274.742188 79.785156 C 278.324219 80.613281 281.910156 80.890625 285.492188 81.164062 L 285.21875 81.992188 C 284.113281 82.269531 283.289062 82.820312 282.738281 83.925781 C 283.011719 84.203125 283.5625 84.753906 284.113281 85.03125 C 285.492188 86.136719 286.320312 86.964844 286.320312 87.238281 C 286.320312 87.515625 286.046875 88.066406 285.21875 88.066406 L 265.640625 88.066406 L 265.640625 91.933594 L 273.085938 91.933594 L 275.015625 90.550781 C 275.566406 90 276.121094 89.722656 276.945312 89.722656 C 278.324219 90 279.429688 90.550781 280.53125 91.105469 C 282.460938 92.207031 283.5625 93.035156 283.5625 93.589844 C 283.5625 94.140625 283.011719 94.417969 282.183594 94.96875 C 281.359375 95.519531 281.082031 96.074219 281.082031 96.351562 L 281.082031 98.007812 L 281.359375 107.667969 C 281.359375 108.222656 280.253906 108.496094 278.050781 108.773438 L 276.121094 108.773438 C 275.015625 108.773438 274.464844 108.222656 274.464844 107.394531 L 274.464844 106.5625 L 240.550781 106.5625 L 240.550781 107.667969 C 240.550781 108.222656 239.449219 108.496094 237.519531 108.773438 L 235.589844 108.773438 C 234.210938 108.773438 233.660156 108.222656 233.660156 107.394531 C 233.933594 106.5625 233.933594 105.460938 233.933594 104.632812 L 233.933594 94.140625 C 233.933594 93.035156 233.933594 91.933594 233.660156 90.277344 C 236.140625 90.828125 238.621094 91.65625 241.105469 92.484375 L 247.71875 92.484375 C 247.71875 91.65625 247.996094 90.550781 247.996094 89.722656 L 247.996094 88.621094 L 237.242188 88.621094 C 233.660156 88.621094 230.902344 88.621094 229.523438 88.894531 L 228.421875 86.964844 C 231.453125 87.238281 234.210938 87.515625 237.242188 87.238281 L 276.945312 87.238281 C 277.496094 86.6875 278.324219 86.136719 278.875 85.582031 C 278.050781 85.582031 277.496094 85.308594 276.671875 85.03125 C 274.464844 84.480469 272.257812 83.925781 270.328125 82.820312 L 268.675781 83.375 C 265.089844 84.480469 261.230469 85.308594 257.371094 85.859375 L 257.09375 85.582031 C 258.199219 85.308594 259.300781 85.03125 260.679688 84.480469 L 236.96875 84.480469 L 236.96875 85.03125 C 236.96875 85.582031 236.140625 86.136719 234.210938 86.410156 C 233.382812 86.410156 232.832031 86.410156 232.28125 86.410156 C 231.179688 86.410156 230.625 85.859375 230.625 85.03125 C 230.625 83.648438 230.902344 81.992188 230.902344 80.613281 L 230.902344 70.121094 C 230.902344 67.914062 230.902344 65.980469 230.625 64.050781 C 233.109375 64.601562 235.589844 65.429688 238.070312 66.257812 L 251.304688 66.257812 L 252.683594 65.152344 C 253.785156 64.050781 254.613281 63.773438 254.890625 63.773438 C 255.992188 64.050781 257.09375 64.878906 257.921875 65.429688 C 259.023438 66.257812 259.578125 66.535156 259.578125 66.808594 C 259.578125 67.085938 259.300781 67.636719 259.023438 67.636719 C 259.023438 67.636719 259.023438 67.636719 258.75 67.636719 L 242.207031 67.636719 C 243.035156 67.914062 243.859375 67.914062 244.410156 68.191406 C 245.789062 68.464844 246.34375 69.019531 246.34375 69.292969 C 246.34375 69.570312 246.066406 69.847656 245.238281 69.847656 C 244.6875 69.847656 244.410156 69.847656 244.136719 70.121094 L 243.585938 70.675781 L 250.203125 70.675781 L 251.304688 69.847656 C 251.855469 69.292969 252.40625 69.019531 253.234375 68.742188 C 254.0625 69.019531 254.890625 69.570312 255.714844 70.121094 C 256.542969 70.675781 257.09375 71.226562 257.09375 71.226562 C 257.09375 71.777344 256.820312 72.054688 256.269531 72.054688 L 250.203125 72.054688 C 250.203125 73.4375 249.925781 74.539062 249.925781 75.367188 L 251.855469 75.367188 C 252.40625 75.09375 252.683594 74.816406 253.234375 74.265625 C 253.785156 73.710938 254.335938 73.4375 254.890625 73.160156 C 255.714844 73.4375 256.542969 73.710938 257.09375 74.539062 C 258.199219 75.367188 258.75 75.921875 258.75 76.195312 C 258.75 76.472656 258.472656 77.023438 257.921875 77.023438 L 249.652344 77.023438 C 249.652344 77.300781 249.375 77.300781 249.375 77.578125 C 251.027344 77.851562 252.960938 78.128906 254.613281 78.40625 C 255.714844 78.679688 256.269531 79.234375 256.269531 79.507812 C 256.269531 80.335938 255.714844 81.164062 255.164062 81.441406 C 254.613281 81.992188 253.785156 82.269531 252.960938 82.269531 C 252.132812 82.269531 251.582031 81.71875 251.027344 81.164062 C 250.476562 80.335938 249.652344 79.507812 248.546875 78.957031 C 248.273438 79.234375 247.996094 79.785156 247.71875 80.0625 C 246.617188 80.890625 245.515625 81.441406 244.410156 81.992188 C 242.207031 82.820312 240 83.375 237.796875 83.648438 L 237.796875 83.097656 C 238.898438 82.546875 240.277344 81.992188 241.378906 81.441406 C 242.207031 80.890625 242.757812 80.335938 243.308594 79.507812 C 243.859375 78.957031 244.136719 78.128906 244.410156 77.300781 C 241.65625 77.300781 239.726562 77.300781 238.347656 77.578125 L 237.242188 75.644531 C 239.726562 75.921875 241.929688 76.195312 244.410156 75.921875 C 244.410156 75.09375 244.6875 73.988281 244.6875 72.605469 L 241.929688 72.605469 L 241.378906 72.882812 C 240.277344 73.710938 238.898438 74.265625 237.796875 74.816406 L 237.242188 73.710938 C 238.070312 72.882812 238.621094 71.777344 239.171875 70.675781 C 239.726562 69.570312 240 68.742188 240.277344 67.636719 Z M 274.464844 101.042969 L 274.464844 99.386719 L 265.367188 99.386719 C 263.988281 99.386719 262.609375 99.109375 261.230469 98.558594 C 260.402344 98.28125 259.851562 97.453125 259.851562 96.351562 L 259.851562 93.589844 L 253.785156 93.589844 C 253.511719 93.863281 253.511719 94.140625 253.234375 94.691406 C 252.132812 96.074219 250.753906 97.179688 249.097656 97.730469 C 246.894531 98.835938 244.410156 99.664062 241.929688 99.9375 L 241.105469 99.386719 C 242.480469 98.835938 243.585938 98.28125 244.6875 97.179688 C 245.789062 96.351562 246.617188 95.519531 247.167969 94.417969 C 247.167969 94.140625 247.445312 93.863281 247.445312 93.589844 L 240.550781 93.589844 L 240.550781 100.765625 L 274.464844 100.765625 Z M 274.464844 105.460938 L 274.464844 102.421875 L 240.550781 102.421875 L 240.550781 105.460938 Z M 260.128906 88.621094 L 254.890625 88.621094 L 254.890625 89.722656 C 254.890625 90.550781 254.890625 91.65625 254.613281 92.484375 L 260.128906 92.484375 Z M 268.398438 78.679688 C 268.949219 78.957031 269.777344 79.234375 270.328125 79.507812 C 271.707031 78.40625 273.085938 77.300781 274.1875 75.921875 L 264.261719 75.921875 C 265.640625 77.023438 267.019531 78.128906 268.398438 78.679688 Z M 265.640625 95.519531 C 265.640625 96.074219 265.917969 96.074219 267.019531 96.074219 L 274.464844 96.074219 L 274.464844 93.863281 L 265.640625 93.863281 Z M 265.640625 95.519531 "/>
<path style=" stroke:none;fill-rule:nonzero;fill:rgb(12.54902%,16.862745%,42.745098%);fill-opacity:1;" d="M 314.445312 65.707031 C 316.097656 66.808594 316.925781 67.636719 316.925781 67.914062 C 316.925781 68.191406 316.375 68.742188 314.996094 68.742188 C 313.617188 68.742188 312.789062 69.292969 312.511719 69.570312 C 310.308594 73.160156 307.828125 76.75 305.070312 79.785156 C 307.273438 81.164062 309.480469 82.820312 311.136719 84.753906 C 311.960938 85.859375 312.511719 86.964844 313.066406 88.066406 C 313.617188 89.171875 313.890625 90.550781 313.890625 91.933594 C 313.890625 93.3125 313.617188 94.691406 312.511719 95.796875 C 311.6875 96.902344 310.582031 97.453125 309.480469 98.007812 C 308.652344 98.558594 307.550781 98.835938 306.722656 98.835938 C 306.171875 98.835938 305.894531 98.28125 305.621094 97.179688 C 305.34375 96.074219 303.691406 94.96875 301.210938 94.140625 L 301.210938 106.839844 C 301.210938 107.394531 300.105469 107.945312 297.902344 108.222656 L 295.96875 108.222656 C 294.59375 108.222656 294.039062 107.667969 294.039062 106.5625 C 294.039062 104.90625 294.316406 103.25 294.316406 101.320312 L 294.316406 71.226562 C 294.316406 68.742188 294.039062 66.535156 293.765625 64.050781 C 296.796875 64.601562 299.832031 65.429688 302.863281 66.535156 L 305.894531 66.535156 C 306.722656 65.707031 307.550781 65.152344 308.378906 64.324219 C 308.929688 63.773438 309.480469 63.496094 310.308594 63.496094 C 311.6875 64.050781 313.066406 64.878906 314.445312 65.707031 Z M 301.484375 93.3125 C 302.863281 93.589844 303.964844 93.589844 305.34375 93.589844 C 306.171875 93.589844 306.722656 93.589844 307.550781 93.035156 C 308.101562 92.207031 308.101562 91.378906 308.101562 90.550781 C 308.101562 88.621094 307.828125 86.964844 307 85.308594 C 305.894531 83.375 304.792969 81.441406 303.140625 80.0625 C 304.792969 76.195312 306.171875 72.054688 307 67.914062 L 301.761719 67.914062 Z M 321.886719 86.964844 L 339.257812 86.964844 C 340.085938 86.410156 340.636719 85.859375 341.1875 85.03125 C 342.015625 84.203125 342.84375 83.375 343.945312 82.820312 C 345.324219 83.097656 346.703125 83.925781 347.527344 85.03125 C 349.183594 86.410156 350.285156 87.238281 350.285156 87.515625 C 350.285156 87.792969 349.734375 88.34375 348.90625 88.34375 L 337.878906 88.34375 L 337.878906 101.320312 C 337.878906 102.148438 338.15625 102.699219 338.707031 102.976562 C 339.535156 102.976562 340.636719 102.976562 341.464844 102.976562 C 342.289062 102.976562 343.117188 102.699219 343.667969 102.148438 C 344.496094 100.214844 345.324219 98.007812 345.875 95.796875 L 347.253906 96.074219 L 347.253906 99.386719 C 347.253906 100.492188 347.804688 101.59375 348.90625 102.421875 C 349.734375 103.25 350.285156 103.804688 350.285156 104.632812 C 350.285156 105.460938 349.734375 106.289062 348.90625 106.5625 C 346.425781 107.394531 343.945312 107.945312 341.464844 107.667969 L 337.878906 107.667969 C 336.777344 107.667969 335.398438 107.667969 334.292969 107.117188 C 332.363281 107.117188 330.988281 105.460938 330.988281 103.527344 C 330.988281 103.527344 330.988281 103.527344 330.988281 103.25 L 330.988281 88.34375 L 327.125 88.34375 C 326.851562 91.105469 326.300781 94.140625 325.195312 96.625 C 324.371094 98.28125 323.265625 99.9375 321.886719 101.320312 C 320.234375 102.699219 318.304688 103.804688 316.375 104.90625 C 313.339844 106.289062 310.03125 107.394531 306.722656 108.222656 L 305.894531 107.117188 C 307.828125 106.5625 309.757812 105.460938 311.410156 104.355469 C 313.066406 103.25 314.71875 101.871094 316.097656 100.214844 C 317.199219 98.835938 318.027344 97.179688 318.578125 95.519531 C 319.40625 93.3125 319.957031 90.828125 319.957031 88.621094 C 317.476562 88.621094 315.546875 88.621094 314.167969 88.894531 L 313.339844 86.964844 C 316.097656 86.964844 319.128906 86.964844 321.886719 86.964844 Z M 334.019531 64.601562 C 335.671875 64.601562 336.5 64.878906 336.5 65.429688 C 336.5 65.980469 335.949219 65.980469 335.121094 66.257812 C 334.292969 66.535156 333.46875 67.085938 333.46875 67.636719 L 333.46875 70.949219 L 339.808594 70.949219 C 340.636719 70.398438 341.464844 69.847656 342.015625 69.292969 C 342.566406 68.742188 343.117188 68.191406 343.945312 68.191406 C 345.597656 68.742188 346.976562 69.292969 348.082031 70.398438 C 350.011719 71.777344 351.113281 72.605469 351.113281 73.160156 C 351.113281 73.710938 350.5625 73.988281 349.734375 73.988281 C 349.183594 73.988281 348.355469 73.988281 347.804688 74.265625 C 345.597656 75.367188 343.394531 76.472656 341.1875 77.300781 C 342.84375 78.679688 343.394531 79.234375 343.394531 79.507812 C 343.394531 79.785156 343.117188 80.335938 342.289062 80.335938 L 324.921875 80.335938 C 321.335938 80.335938 318.578125 80.335938 317.199219 80.335938 L 316.097656 78.40625 C 319.128906 78.679688 321.886719 78.957031 324.921875 78.679688 L 333.46875 78.679688 C 334.292969 78.128906 334.847656 77.578125 335.398438 77.023438 C 336.226562 76.195312 337.050781 75.644531 337.878906 75.09375 C 338.429688 75.09375 338.707031 75.367188 339.257812 75.367188 C 339.808594 74.265625 340.359375 73.160156 340.910156 72.054688 L 319.40625 72.054688 C 319.40625 72.882812 319.128906 73.988281 319.128906 74.816406 C 318.855469 75.921875 318.027344 77.023438 316.925781 77.578125 C 316.375 77.851562 315.820312 78.128906 314.996094 78.128906 C 313.890625 78.128906 312.789062 77.851562 311.960938 77.300781 C 311.136719 77.023438 310.859375 76.195312 310.859375 75.367188 C 310.859375 75.09375 311.410156 74.539062 312.789062 73.710938 C 314.167969 73.160156 315.269531 72.605469 316.375 71.503906 C 317.199219 70.675781 318.027344 69.570312 318.304688 68.191406 L 319.40625 68.464844 C 319.40625 69.570312 319.40625 70.398438 319.40625 70.949219 L 326.574219 70.949219 L 326.574219 67.914062 C 326.574219 66.535156 326.300781 65.152344 326.023438 63.773438 C 328.78125 64.050781 331.539062 64.324219 334.019531 64.601562 Z M 334.019531 64.601562 "/>
<path style=" stroke:none;fill-rule:nonzero;fill:rgb(50.196078%,50.196078%,50.196078%);fill-opacity:1;" d="M 168.316406 128.097656 L 180.445312 128.097656 L 196.4375 151.5625 L 196.4375 128.097656 L 208.84375 128.097656 L 208.84375 170.335938 L 196.4375 170.335938 L 180.722656 147.148438 L 180.722656 170.335938 L 168.316406 170.335938 Z M 168.316406 128.097656 "/>
<path style=" stroke:none;fill-rule:nonzero;fill:rgb(50.196078%,50.196078%,50.196078%);fill-opacity:1;" d="M 214.359375 128.097656 L 254.0625 128.097656 L 254.0625 138.589844 L 240.828125 138.589844 L 240.828125 170.335938 L 227.871094 170.335938 L 227.871094 138.589844 L 214.636719 138.589844 L 214.636719 128.097656 Z M 214.359375 128.097656 "/>
<path style=" stroke:none;fill-rule:nonzero;fill:rgb(50.196078%,50.196078%,50.196078%);fill-opacity:1;" d="M 287.421875 128.097656 L 300.382812 128.097656 L 300.382812 153.222656 C 300.382812 155.707031 300.105469 157.914062 299.277344 160.398438 C 298.453125 162.605469 297.347656 164.539062 295.695312 166.195312 C 294.316406 167.851562 292.386719 168.957031 290.457031 169.785156 C 287.421875 170.890625 284.390625 171.164062 281.359375 171.164062 C 279.152344 171.164062 276.945312 170.890625 274.742188 170.613281 C 272.535156 170.335938 270.605469 169.785156 268.675781 168.957031 C 267.019531 168.128906 265.367188 166.75 264.261719 165.367188 C 262.886719 163.988281 262.058594 162.332031 261.507812 160.398438 C 260.679688 158.191406 260.402344 155.707031 260.402344 153.222656 L 260.402344 128.097656 L 273.363281 128.097656 L 273.363281 153.773438 C 273.085938 155.707031 273.914062 157.914062 275.292969 159.292969 C 276.671875 160.675781 278.601562 161.226562 280.53125 161.226562 C 282.460938 161.226562 284.390625 160.675781 285.769531 159.292969 C 287.148438 157.914062 287.699219 155.707031 287.699219 153.773438 Z M 287.421875 128.097656 "/>
<path style=" stroke:none;fill-rule:nonzero;fill:rgb(50.196078%,50.196078%,50.196078%);fill-opacity:1;" d="M 308.929688 128.097656 L 321.886719 128.097656 L 321.886719 142.730469 L 336.226562 142.730469 L 336.226562 128.097656 L 349.460938 128.097656 L 349.460938 170.335938 L 336.226562 170.335938 L 336.226562 153.222656 L 321.886719 153.222656 L 321.886719 170.335938 L 308.929688 170.335938 Z M 308.929688 128.097656 "/>
<path style=" stroke:none;fill-rule:nonzero;fill:rgb(100%,100%,100%);fill-opacity:1;" d="M 142.671875 133.894531 L 127.785156 133.894531 L 127.785156 117.882812 L 109.585938 117.882812 L 109.585938 133.894531 L 94.699219 133.894531 L 94.699219 152.117188 L 109.585938 152.117188 L 109.585938 167.023438 L 127.785156 167.023438 L 127.785156 152.117188 L 142.671875 152.117188 Z M 142.671875 133.894531 "/>
</g>
</svg>
